<svg width="33" height="30" viewBox="0 0 33 30" fill="none" xmlns="http://www.w3.org/2000/svg">
<path d="M23.9445 13.0177C24.75 12.2855 24.75 11.107 24.75 8.75C24.75 6.39298 24.75 5.21446 23.9445 4.48224M23.9445 13.0177C23.139 13.75 21.8427 13.75 19.25 13.75H13.75C11.1573 13.75 9.86091 13.75 9.05546 13.0177M23.9445 4.48224C23.139 3.75 21.8427 3.75 19.25 3.75H13.75C11.1573 3.75 9.86091 3.75 9.05546 4.48224M9.05546 4.48224C8.25 5.21446 8.25 6.39298 8.25 8.75C8.25 11.107 8.25 12.2855 9.05546 13.0177" stroke="currentColor" stroke-width="1.5"/>
<path d="M17.875 8.75C17.875 9.44035 17.2594 10 16.5 10C15.7406 10 15.125 9.44035 15.125 8.75C15.125 8.05965 15.7406 7.5 16.5 7.5C17.2594 7.5 17.875 8.05965 17.875 8.75Z" stroke="currentColor" stroke-width="1.5"/>
<path d="M24.75 7.5C22.4718 7.5 20.625 5.82106 20.625 3.75" stroke="currentColor" stroke-width="1.5" stroke-linecap="round"/>
<path d="M24.75 10C22.4718 10 20.625 11.6789 20.625 13.75" stroke="currentColor" stroke-width="1.5" stroke-linecap="round"/>
<path d="M8.25 7.5C10.5282 7.5 12.375 5.82106 12.375 3.75" stroke="currentColor" stroke-width="1.5" stroke-linecap="round"/>
<path d="M8.25 10C10.5282 10 12.375 11.6789 12.375 13.75" stroke="currentColor" stroke-width="1.5" stroke-linecap="round"/>
<path d="M6.875 25.4855H9.9824C11.3723 25.4855 12.7772 25.6172 14.1299 25.8705C16.5228 26.3187 19.0421 26.3729 21.4595 26.0173C22.6515 25.8418 23.8232 25.5737 24.8841 25.1082C25.8416 24.688 27.0145 24.0958 27.8024 23.4324C28.5891 22.77 29.4085 21.6859 29.99 20.8384C30.4887 20.1118 30.2475 19.2203 29.4587 18.6788C28.5825 18.0774 27.2823 18.0775 26.4063 18.6792L23.9214 20.3855C22.9584 21.0469 21.9065 21.6557 20.6533 21.8374C20.5026 21.8593 20.3448 21.8792 20.1801 21.8965M20.1801 21.8965C20.1304 21.9018 20.0802 21.9068 20.0294 21.9115M20.1801 21.8965C20.3805 21.8575 20.5795 21.745 20.7664 21.5969C21.6508 20.8952 21.7066 19.7125 20.9392 18.9289C20.7613 18.7472 20.5528 18.5955 20.3213 18.4699C16.4748 16.3843 10.4905 17.9728 6.875 20.3037M20.1801 21.8965C20.1299 21.9063 20.0795 21.9115 20.0294 21.9115M20.0294 21.9115C19.3097 21.9787 18.4679 21.996 17.5337 21.9158" stroke="currentColor" stroke-width="1.5" stroke-linecap="round"/>
<path d="M6.875 19.375C6.875 18.3395 5.95159 17.5 4.8125 17.5C3.67341 17.5 2.75 18.3395 2.75 19.375V25.625C2.75 26.6605 3.67341 27.5 4.8125 27.5C5.95159 27.5 6.875 26.6605 6.875 25.625V19.375Z" stroke="currentColor" stroke-width="1.5"/>
</svg>
