<svg width="44" height="38" viewBox="0 0 44 38" fill="none" xmlns="http://www.w3.org/2000/svg">
<g id="Duotone/Handshake">
<path id="Vector" opacity="0.2" d="M34.0938 22.6961L27.9125 28.1586C27.744 28.2978 27.5399 28.3989 27.3176 28.4532C27.0953 28.5075 26.8614 28.5134 26.6359 28.4703L16.8938 26.318C16.7158 26.2741 16.55 26.1983 16.4066 26.0953L7.21875 19.757L12.6945 10.6578L21.3113 8.43126C21.6175 8.35367 21.9449 8.37471 22.2352 8.49064L28.0469 10.8211H24.5699C24.3954 10.8206 24.2225 10.8504 24.0611 10.909C23.8997 10.9676 23.753 11.0537 23.6293 11.1625L17.0449 16.9664C16.9105 17.0884 16.8069 17.2342 16.741 17.3942C16.6751 17.5542 16.6484 17.7248 16.6627 17.8946C16.677 18.0644 16.7319 18.2295 16.8239 18.3792C16.9158 18.5288 17.0427 18.6595 17.1961 18.7625L18.1031 19.3711C19.0346 19.9855 20.1658 20.3174 21.3281 20.3174C22.4904 20.3174 23.6216 19.9855 24.5531 19.3711L26.7031 17.9461L34.0938 22.6961Z" fill="#DF6951"/>
<path id="Vector_2" d="M40.9301 18.0796L36.7813 19.9054L31.4062 10.821L35.6055 8.96555C35.9175 8.82497 36.2798 8.79914 36.6134 8.89368C36.9469 8.98823 37.2246 9.19548 37.3859 9.47024L41.518 16.4616C41.6018 16.6016 41.653 16.7549 41.6688 16.9127C41.6845 17.0704 41.6644 17.2293 41.6096 17.38C41.5549 17.5308 41.4665 17.6704 41.3498 17.7905C41.2331 17.9106 41.0904 18.0089 40.9301 18.0796V18.0796Z" stroke="#DF6951" stroke-width="2" stroke-linecap="round" stroke-linejoin="round"/>
<path id="Vector_3" d="M7.21895 19.757L3.07012 17.9163C2.91038 17.8471 2.76801 17.7503 2.65147 17.6315C2.53494 17.5127 2.44663 17.3744 2.39178 17.2249C2.33694 17.0753 2.31668 16.9175 2.33222 16.7609C2.34776 16.6043 2.39877 16.452 2.48223 16.3132L6.61427 9.3218C6.7759 9.04724 7.05246 8.83929 7.38502 8.74225C7.71758 8.64521 8.07987 8.66675 8.39473 8.80227L12.594 10.6577L7.21895 19.757Z" stroke="#DF6951" stroke-width="2" stroke-linecap="round" stroke-linejoin="round"/>
<path id="Vector_4" d="M36.7812 19.9055L34.0938 22.6961L27.9125 28.1586C27.744 28.2979 27.5399 28.3989 27.3176 28.4532C27.0953 28.5075 26.8614 28.5134 26.6359 28.4704L16.8937 26.318C16.7158 26.2742 16.55 26.1984 16.4066 26.0954L7.21875 19.7571" stroke="#DF6951" stroke-width="2" stroke-linecap="round" stroke-linejoin="round"/>
<path id="Vector_5" d="M34.094 22.6961L26.7033 17.9461L24.5533 19.3711C23.6219 19.9854 22.4907 20.3174 21.3283 20.3174C20.166 20.3174 19.0348 19.9854 18.1033 19.3711L17.1963 18.7625C17.0429 18.6594 16.9161 18.5287 16.8241 18.3791C16.7322 18.2295 16.6772 18.0643 16.6629 17.8945C16.6486 17.7247 16.6753 17.5542 16.7412 17.3941C16.8071 17.2341 16.9107 17.0883 17.0451 16.9664L23.6295 11.1625C23.7532 11.0537 23.8999 10.9676 24.0613 10.909C24.2227 10.8504 24.3956 10.8205 24.5701 10.8211H31.4065" stroke="#DF6951" stroke-width="2" stroke-linecap="round" stroke-linejoin="round"/>
<path id="Vector_6" d="M12.6943 10.6578L21.3111 8.43126C21.6173 8.35367 21.9447 8.37471 22.235 8.49064L28.0467 10.8211" stroke="#DF6951" stroke-width="2" stroke-linecap="round" stroke-linejoin="round"/>
<path id="Vector_7" d="M19.3125 31.6023L14.2566 30.4742C14.0506 30.4331 13.8598 30.3462 13.7023 30.2219L9.90625 27.3125" stroke="#DF6951" stroke-width="2" stroke-linecap="round" stroke-linejoin="round"/>
</g>
</svg>
