<svg width="43" height="41" viewBox="0 0 43 41" fill="none" xmlns="http://www.w3.org/2000/svg">
<path d="M21.4997 20.4999L16.2005 25.3814C10.9643 30.2049 8.34628 32.6166 9.07922 34.6974C9.14223 34.8763 9.22047 35.0503 9.31321 35.2178C10.3922 37.1666 14.0947 37.1666 21.4997 37.1666C28.9046 37.1666 32.6071 37.1666 33.6861 35.2178C33.7789 35.0503 33.8572 34.8763 33.92 34.6974C34.653 32.6166 32.035 30.2049 26.7989 25.3814L21.4997 20.4999ZM21.4997 20.4999L26.7989 15.6184C32.035 10.7949 34.653 8.3832 33.92 6.3024C33.8572 6.12354 33.7789 5.94954 33.6861 5.78202C32.6071 3.83325 28.9046 3.83325 21.4997 3.83325C14.0947 3.83325 10.3922 3.83325 9.31321 5.78202C9.22047 5.94954 9.14223 6.12354 9.07922 6.3024C8.34628 8.3832 10.9643 10.7949 16.2005 15.6184L21.4997 20.4999Z" stroke="#DF6951" stroke-width="2"/>
<path d="M17.917 9.66675H25.0837" stroke="#DF6951" stroke-width="1.5" stroke-linecap="round"/>
<path d="M17.917 31.3333H25.0837" stroke="#DF6951" stroke-width="1.5" stroke-linecap="round"/>
</svg>
