<svg width="38" height="40" viewBox="0 0 38 40" fill="none" xmlns="http://www.w3.org/2000/svg">
<g id="Linear / Notes / Clipboard List">
<path id="Vector" d="M25.1667 6.66992C28.5198 6.69011 30.3357 6.85086 31.5203 8.13149C32.875 9.59596 32.875 11.953 32.875 16.667V26.667C32.875 31.381 32.875 33.7382 31.5203 35.2025C30.1657 36.667 27.9854 36.667 23.625 36.667H14.375C10.0145 36.667 7.83426 36.667 6.47963 35.2025C5.125 33.7382 5.125 31.381 5.125 26.667V16.667C5.125 11.953 5.125 9.59596 6.47963 8.13149C7.66422 6.85086 9.48016 6.69011 12.8333 6.66992" stroke="#DF6951" stroke-width="2"/>
<path id="Vector_2" d="M16.6875 23.3333H26.7083" stroke="#DF6951" stroke-width="2" stroke-linecap="round"/>
<path id="Vector_3" d="M11.292 23.3333H12.0628" stroke="#DF6951" stroke-width="2" stroke-linecap="round"/>
<path id="Vector_4" d="M11.292 17.5H12.0628" stroke="#DF6951" stroke-width="2" stroke-linecap="round"/>
<path id="Vector_5" d="M11.292 29.1667H12.0628" stroke="#DF6951" stroke-width="2" stroke-linecap="round"/>
<path id="Vector_6" d="M16.6875 17.5H26.7083" stroke="#DF6951" stroke-width="2" stroke-linecap="round"/>
<path id="Vector_7" d="M16.6875 29.1667H26.7083" stroke="#DF6951" stroke-width="2" stroke-linecap="round"/>
<path id="Vector_8" d="M12.833 5.83325C12.833 4.45254 13.8683 3.33325 15.1455 3.33325H22.8538C24.131 3.33325 25.1663 4.45254 25.1663 5.83325V7.49992C25.1663 8.88064 24.131 9.99992 22.8538 9.99992H15.1455C13.8683 9.99992 12.833 8.88064 12.833 7.49992V5.83325Z" stroke="#DF6951" stroke-width="2"/>
</g>
</svg>
