<svg width="48" height="40" viewBox="0 0 48 40" fill="none" xmlns="http://www.w3.org/2000/svg">
<path d="M4 23.3333C4 17.048 4 13.9052 6.34314 11.9526C8.6863 10 12.4575 10 20 10H28C35.5424 10 39.3138 10 41.6568 11.9526C44 13.9052 44 17.048 44 23.3333C44 29.6187 44 32.7615 41.6568 34.714C39.3138 36.6667 35.5424 36.6667 28 36.6667H20C12.4575 36.6667 8.6863 36.6667 6.34314 34.714C4 32.7615 4 29.6187 4 23.3333Z" stroke="#DF6951" stroke-width="2"/>
<path d="M32 9.99992C32 6.85722 32 5.28587 30.8284 4.30957C29.6568 3.33325 27.7712 3.33325 24 3.33325C20.2288 3.33325 18.3431 3.33325 17.1716 4.30957C16 5.28587 16 6.85722 16 9.99992" stroke="#DF6951" stroke-width="2"/>
<path d="M24 28.8889C26.2092 28.8889 28 27.6452 28 26.1112C28 24.5771 26.2092 23.3334 24 23.3334C21.7908 23.3334 20 22.0897 20 20.5556C20 19.0216 21.7908 17.7779 24 17.7779M24 28.8889C21.7908 28.8889 20 27.6452 20 26.1112M24 28.8889V30.0001M24 17.7779V16.6667M24 17.7779C26.2092 17.7779 28 19.0216 28 20.5556" stroke="#DF6951" stroke-width="2" stroke-linecap="round"/>
</svg>
