<svg width="42" height="35" viewBox="0 0 42 35" fill="none" xmlns="http://www.w3.org/2000/svg">
<g id="&#240;&#159;&#166;&#134; icon &#34;send&#34;">
<path id="Vector" d="M41.994 17.9402C41.9939 18.2568 41.8853 18.5671 41.6803 18.8364C41.4754 19.1057 41.1821 19.3233 40.8335 19.465L3.04814 34.8242C2.69353 34.968 2.29605 35.0274 1.90167 34.9955C1.50728 34.9635 1.1321 34.8415 0.819519 34.6437C0.506934 34.4458 0.269711 34.1801 0.135289 33.8773C0.000862953 33.5745 -0.0252726 33.247 0.0599018 32.9326L4.15282 17.9535L0.0493406 2.97909C-0.0365552 2.66464 -0.0110245 2.33686 0.122974 2.03368C0.256977 1.7305 0.493966 1.46434 0.806507 1.26601C1.11904 1.06768 1.49435 0.945296 1.88896 0.913025C2.28357 0.880755 2.68135 0.939919 3.03624 1.08367L40.8324 16.4162C41.1812 16.5576 41.4745 16.7751 41.6797 17.0442C41.8848 17.3134 41.9937 17.6236 41.994 17.9402ZM7.98709 19.6573L5.11449 30.172L31.0017 19.6492L7.98709 19.6573ZM31.0005 16.239L5.10588 5.73445L7.98588 16.2471L31.0005 16.239Z" fill="#8E8E8E"/>
</g>
</svg>
